<?xml version="1.0" encoding="UTF-8" standalone="no"?>
<!-- Generator: Adobe Illustrator 16.2.1, SVG Export Plug-In . SVG Version: 6.00 Build 0)  -->

<svg
   xmlns:dc="http://purl.org/dc/elements/1.1/"
   xmlns:cc="http://creativecommons.org/ns#"
   xmlns:rdf="http://www.w3.org/1999/02/22-rdf-syntax-ns#"
   xmlns:svg="http://www.w3.org/2000/svg"
   xmlns="http://www.w3.org/2000/svg"
   xmlns:xlink="http://www.w3.org/1999/xlink"
   xmlns:sodipodi="http://sodipodi.sourceforge.net/DTD/sodipodi-0.dtd"
   xmlns:inkscape="http://www.inkscape.org/namespaces/inkscape"
   version="1.1"
   id="Layer_1"
   x="0px"
   y="0px"
   width="460"
   height="460"
   viewBox="0 0 460 460"
   xml:space="preserve"
   sodipodi:docname="image.svg"
   inkscape:version="0.92.2 (5c3e80d, 2017-08-06)"
   inkscape:export-filename="/home/andrew/image.svg.png"
   inkscape:export-xdpi="96"
   inkscape:export-ydpi="96"><metadata
     id="metadata13"><rdf:RDF><cc:Work
         rdf:about=""><dc:format>image/svg+xml</dc:format><dc:type
           rdf:resource="http://purl.org/dc/dcmitype/StillImage" /><dc:title></dc:title></cc:Work></rdf:RDF></metadata><defs
     id="defs11"><linearGradient
       id="linearGradient4519"><stop
         style="stop-color:#e30000;stop-opacity:1;"
         offset="0"
         id="stop4517" /></linearGradient><linearGradient
       inkscape:collect="always"
       xlink:href="#linearGradient4519"
       id="linearGradient4521"
       x1="-703.66382"
       y1="65.315987"
       x2="-462.89584"
       y2="65.315987"
       gradientUnits="userSpaceOnUse" /></defs><sodipodi:namedview
     pagecolor="#ffffff"
     bordercolor="#666666"
     borderopacity="1"
     objecttolerance="10"
     gridtolerance="10"
     guidetolerance="10"
     inkscape:pageopacity="0"
     inkscape:pageshadow="2"
     inkscape:window-width="1920"
     inkscape:window-height="1036"
     id="namedview9"
     showgrid="false"
     inkscape:zoom="0.921875"
     inkscape:cx="-443.88509"
     inkscape:cy="268.22479"
     inkscape:window-x="1440"
     inkscape:window-y="0"
     inkscape:window-maximized="1"
     inkscape:current-layer="Layer_1"
     inkscape:snap-to-guides="true"
     inkscape:pagecheckerboard="true" /><g
     id="g6"
     style="fill:#303030;fill-opacity:1;stroke:#f8f8f8;stroke-width:12;stroke-miterlimit:4;stroke-dasharray:none;stroke-opacity:1"
     transform="translate(-26,-26)"><path
       d="m 368,224 c 26.5,0 48,-21.5 48,-48 0,-26.5 -21.5,-48 -48,-48 -26.5,0 -48,21.5 -48,48 0,26.5 21.5,48 48,48 z"
       id="path2"
       style="fill:#303030;fill-opacity:1;stroke:#f8f8f8;stroke-width:12;stroke-miterlimit:4;stroke-dasharray:none;stroke-opacity:1"
       inkscape:connector-curvature="0" /><path
       d="M 452,64 H 60 C 44.4,64 32,76.7 32,92.3 v 327.4 c 0,15.6 12.4,28.3 28,28.3 h 392 c 15.6,0 28,-12.7 28,-28.3 V 92.3 C 480,76.7 467.6,64 452,64 Z M 348.9,261.7 c -3,-3.5 -7.6,-6.2 -12.8,-6.2 -5.1,0 -8.7,2.4 -12.8,5.7 L 304.6,277 c -3.9,2.8 -7,4.7 -11.5,4.7 -4.3,0 -8.2,-1.6 -11,-4.1 -1,-0.9 -2.8,-2.6 -4.3,-4.1 L 224,215.3 c -4,-4.6 -10,-7.5 -16.7,-7.5 -6.7,0 -12.9,3.3 -16.8,7.8 L 64,368.2 V 107.7 C 65,100.9 70.3,96 77.1,96 h 357.7 c 6.9,0 12.5,5.1 12.9,12 l 0.3,260.4 z"
       id="path4"
       style="fill:#303030;fill-opacity:1;stroke:#f8f8f8;stroke-width:12;stroke-miterlimit:4;stroke-dasharray:none;stroke-opacity:1"
       inkscape:connector-curvature="0" /></g></svg>