<?xml version="1.0" encoding="UTF-8" standalone="no"?>
<svg
        xmlns="http://www.w3.org/2000/svg"
        version="1.1"
        x="0px"
        y="0px"
        width="460"
        height="460"
        viewBox="0 0 460 460"
        fill="context-fill"
        fill-opacity="context-fill-opacity"
        xml:space="preserve">
    <g transform="translate(-26,-26)">
        <path d="m 368,224 c 26.5,0 48,-21.5 48,-48 0,-26.5 -21.5,-48 -48,-48 -26.5,0 -48,21.5 -48,48 0,26.5 21.5,48 48,48 z"/>
        <path d="M 452,64 H 60 C 44.4,64 32,76.7 32,92.3 v 327.4 c 0,15.6 12.4,28.3 28,28.3 h 392 c 15.6,0 28,-12.7 28,-28.3 V 92.3 C 480,76.7 467.6,64 452,64 Z M 348.9,261.7 c -3,-3.5 -7.6,-6.2 -12.8,-6.2 -5.1,0 -8.7,2.4 -12.8,5.7 L 304.6,277 c -3.9,2.8 -7,4.7 -11.5,4.7 -4.3,0 -8.2,-1.6 -11,-4.1 -1,-0.9 -2.8,-2.6 -4.3,-4.1 L 224,215.3 c -4,-4.6 -10,-7.5 -16.7,-7.5 -6.7,0 -12.9,3.3 -16.8,7.8 L 64,368.2 V 107.7 C 65,100.9 70.3,96 77.1,96 h 357.7 c 6.9,0 12.5,5.1 12.9,12 l 0.3,260.4 z"/>
    </g>
    <g transform="matrix(1.7338767,0,0,1.5888979,1203.7106,150.76924)">
        <path d="m -518.17383,46.958983 97.125,142.874997 h -75.1875 l -65.4375,-95.624997 -64.875,95.624997 h -75.5625 l 97.125,-142.874997 -93.375,-137.0625 h 75.375 l 61.3125,90.18750042 61.125,-90.18750042 h 75.75 z"/>
    </g>
</svg>